<?xml version="1.0" standalone="no"?>
<!DOCTYPE svg PUBLIC "-//W3C//DTD SVG 20010904//EN"
 "http://www.w3.org/TR/2001/REC-SVG-20010904/DTD/svg10.dtd">
<svg version="1.0" xmlns="http://www.w3.org/2000/svg"
 width="860.000000pt" height="800.000000pt" viewBox="0 0 860.000000 800.000000"
 preserveAspectRatio="xMidYMid meet">

<g transform="translate(0.000000,800.000000) scale(0.100000,-0.100000)"
fill="#000000" stroke="none">
<path d="M4779 7589 c-794 -51 -1507 -318 -2153 -807 -443 -336 -860 -797
-1172 -1297 -80 -128 -179 -305 -172 -305 2 0 56 57 119 126 199 221 467 457
679 598 204 137 439 226 595 226 122 0 178 -20 98 -35 -82 -15 -315 -100 -441
-160 -803 -386 -1201 -1164 -1206 -2355 -1 -129 3 -302 8 -385 l9 -150 22 100
c66 300 166 534 318 747 131 183 272 317 467 447 141 93 263 154 530 264 740
306 1239 608 1638 992 115 110 115 110 108 72 -4 -21 -19 -73 -33 -115 -122
-363 -345 -597 -768 -807 -71 -35 -283 -128 -470 -205 -604 -251 -870 -398
-1163 -646 -304 -256 -476 -606 -523 -1064 -15 -140 -6 -471 16 -620 36 -246
87 -459 168 -700 l52 -155 12 85 c64 439 155 780 274 1029 75 158 130 240 216
322 61 59 133 110 133 94 0 -4 -22 -48 -49 -98 -97 -179 -184 -428 -230 -658
-128 -634 -39 -1288 198 -1463 19 -14 36 -24 39 -22 2 3 -3 40 -12 83 -131
654 -26 1277 295 1755 290 430 787 785 1347 962 125 39 128 32 12 -27 -473
-241 -877 -626 -1084 -1035 -77 -153 -143 -363 -171 -547 -20 -133 -20 -388 0
-496 74 -397 309 -653 725 -789 276 -91 665 -114 960 -58 l65 12 -95 8 c-337
27 -607 152 -869 403 -78 74 -291 316 -291 329 0 4 33 -19 73 -49 194 -149
455 -220 707 -195 114 12 249 48 318 86 26 14 38 22 27 18 -11 -4 -72 -9 -136
-12 -130 -5 -188 7 -290 59 -215 108 -396 403 -455 739 -39 224 28 489 178
707 116 169 267 307 708 650 389 302 516 409 719 608 262 257 408 429 568 667
356 533 388 979 91 1264 -29 29 -87 79 -128 113 -218 179 -358 426 -416 736
-26 139 -27 474 -1 627 17 103 58 284 72 321 8 20 -14 20 -236 6z"/>
<path d="M5746 6713 c-48 -4 -53 -8 -156 -111 -70 -71 -124 -136 -158 -192
-64 -103 -67 -122 -8 -43 71 94 177 166 286 193 71 18 400 25 495 11 73 -11
86 -11 114 4 36 18 53 52 40 77 -26 49 -145 69 -392 66 -95 -1 -194 -3 -221
-5z"/>
<path d="M6244 6318 c60 -74 80 -113 84 -166 l5 -53 -60 -58 c-108 -106 -274
-151 -549 -151 -126 0 -164 -3 -164 -13 0 -14 137 -153 144 -146 3 2 0 24 -6
47 -6 24 -8 45 -5 48 3 3 28 -6 56 -21 63 -32 211 -81 271 -90 l45 -7 -83 62
c-45 35 -81 64 -79 66 2 3 25 -5 51 -17 94 -41 235 -71 361 -75 l120 -4 -75
23 c-81 24 -117 46 -165 98 -30 32 -30 32 -5 25 142 -42 182 -48 345 -51 94
-2 161 -2 150 1 -11 3 -58 14 -105 26 -93 23 -193 58 -185 66 2 3 42 4 87 3
110 -2 260 22 342 55 36 14 68 29 71 33 2 4 -22 4 -53 -1 -62 -9 -291 -1 -311
11 -7 5 23 11 66 14 147 12 282 62 364 136 l44 40 -73 -29 c-115 -46 -218 -63
-347 -58 -61 3 -122 11 -136 18 -13 7 -65 55 -114 106 -50 52 -97 94 -104 94
-9 0 -4 -12 13 -32z"/>
<path d="M7114 5534 c-104 -62 -130 -103 -99 -150 17 -26 43 -32 49 -11 2 6 9
32 16 56 7 27 29 62 57 92 25 27 44 49 41 49 -2 0 -31 -16 -64 -36z"/>
<path d="M7286 5117 c-10 -7 -82 -86 -161 -177 -78 -91 -163 -184 -188 -207
-45 -42 -100 -62 -133 -49 -32 12 7 -24 49 -46 48 -24 84 -20 164 18 31 14 73
29 93 31 78 11 180 -42 180 -93 0 -20 -10 -30 -52 -49 -29 -14 -61 -25 -70
-25 -26 0 -22 -17 5 -23 156 -38 259 11 287 134 11 51 11 61 -6 95 -23 47 -66
73 -133 81 -28 3 -51 8 -51 10 0 2 13 15 29 29 40 34 62 95 64 180 2 95 -23
125 -77 91z"/>
<path d="M5165 4130 c-3 -5 5 -25 19 -43 55 -72 130 -268 165 -432 47 -215 50
-411 10 -607 -14 -73 -199 -642 -264 -813 l-7 -20 14 20 c8 11 169 281 359
599 363 611 394 656 513 741 100 70 167 99 497 208 348 116 551 193 679 257
78 39 158 91 118 77 -195 -69 -539 -156 -778 -196 -591 -100 -983 -49 -1231
159 -74 62 -83 67 -94 50z"/>
<path d="M4372 3125 c-34 -153 -44 -237 -44 -395 -1 -348 100 -618 311 -830
90 -91 169 -148 311 -225 273 -148 408 -280 486 -474 82 -202 50 -449 -90
-693 l-43 -77 39 32 c50 40 152 155 213 241 54 76 117 209 136 286 21 85 16
213 -10 290 -53 155 -158 265 -421 444 -332 225 -486 357 -605 515 -170 225
-241 451 -253 801 l-7 185 -23 -100z"/>
<path d="M4402 1971 c-18 -87 -17 -242 2 -325 9 -38 31 -96 48 -129 58 -109
115 -159 302 -268 79 -46 159 -134 185 -204 37 -100 21 -236 -41 -345 -15 -28
-7 -21 41 29 81 85 124 173 129 262 7 123 -42 193 -228 320 -209 143 -294 228
-354 354 -43 90 -57 147 -65 270 l-6 100 -13 -64z"/>
</g>
</svg>
